<?xml version="1.0" encoding="UTF-8" standalone="no"?>
<svg
   width="64"
   height="64"
   viewBox="0 0 64 64"
   fill="none"
   version="1.1"
   id="svg11"
   sodipodi:docname="delete-red.svg"
   inkscape:version="1.1 (c4e8f9ed74, 2021-05-24)"
   xmlns:inkscape="http://www.inkscape.org/namespaces/inkscape"
   xmlns:sodipodi="http://sodipodi.sourceforge.net/DTD/sodipodi-0.dtd"
   xmlns:xlink="http://www.w3.org/1999/xlink"
   xmlns="http://www.w3.org/2000/svg"
   xmlns:svg="http://www.w3.org/2000/svg">
  <sodipodi:namedview
     id="namedview13"
     pagecolor="#505050"
     bordercolor="#ffffff"
     borderopacity="1"
     inkscape:pageshadow="0"
     inkscape:pageopacity="0"
     inkscape:pagecheckerboard="1"
     showgrid="false"
     inkscape:zoom="14.517786"
     inkscape:cx="26.519195"
     inkscape:cy="45.117072"
     inkscape:window-width="1909"
     inkscape:window-height="2108"
     inkscape:window-x="-3"
     inkscape:window-y="-3"
     inkscape:window-maximized="1"
     inkscape:current-layer="svg11" />
  <path
     d="m 37.63159,51.41186 h 3.071732 c 0.407351,0 0.797977,-0.153384 1.086109,-0.426464 0.288012,-0.27296 0.449758,-0.643279 0.449758,-1.029485 V 23.750019 c 0,-0.386206 -0.161746,-0.756525 -0.449758,-1.029485 -0.288132,-0.27308 -0.678758,-0.426464 -1.086109,-0.426464 H 37.63159 c -0.407351,0 -0.797977,0.153384 -1.086109,0.426464 -0.288012,0.27296 -0.449758,0.643279 -0.449758,1.029485 v 26.205892 c 0,0.386206 0.161746,0.756525 0.449758,1.029485 0.288132,0.27308 0.678758,0.426464 1.086109,0.426464 z M 58.621962,10.646954 H 48.074334 L 43.722613,3.7678809 C 43.176453,2.9052775 42.403921,2.1915064 41.480275,1.6960919 40.556628,1.2006893 39.513286,0.94054647 38.452024,0.9410243 H 25.547976 c -1.060784,-5.973e-5 -2.103649,0.2602742 -3.026817,0.7556649 -0.923168,0.4953906 -1.695342,1.2089467 -2.241264,2.0711917 L 15.925666,10.646954 H 5.3780259 c -0.5431259,0 -1.0640088,0.204512 -1.4480531,0.568618 -0.3840442,0.363988 -0.5997966,0.857706 -0.5997966,1.372568 v 1.941186 c 0,0.514862 0.2157524,1.008581 0.5997966,1.372568 0.3840443,0.364107 0.9049272,0.568618 1.4480531,0.568618 h 2.0478736 v 40.764906 c 0,1.544467 0.6472212,3.025741 1.7993898,4.117823 1.1521687,1.092201 2.7147937,1.705735 4.3440757,1.705735 h 36.86127 c 1.629282,0 3.191907,-0.613534 4.344076,-1.705735 1.152168,-1.092082 1.79939,-2.573356 1.79939,-4.117823 V 16.470512 h 2.047861 c 0.543174,0 1.064009,-0.204511 1.448065,-0.568618 0.384056,-0.363987 0.599797,-0.857706 0.599797,-1.372568 V 12.58814 c 0,-0.514862 -0.215741,-1.00858 -0.599797,-1.372568 -0.384056,-0.364106 -0.904891,-0.568618 -1.448065,-0.568618 z M 25.323993,7.1175795 c 0.06845,-0.1079897 0.165329,-0.1972245 0.281083,-0.2591036 0.115755,-0.061879 0.246441,-0.094252 0.379398,-0.093894 h 12.031052 c 0.132718,-1.195e-4 0.263165,0.032254 0.378681,0.094132 0.115515,0.061879 0.212157,0.1511139 0.280486,0.2588647 l 2.234694,3.5293744 H 23.090613 Z M 50.430635,57.235418 H 13.569365 V 16.470512 h 36.86127 z M 23.296678,51.41186 h 3.071732 c 0.407351,0 0.797977,-0.153384 1.086109,-0.426464 0.288012,-0.27296 0.449758,-0.643279 0.449758,-1.029485 V 23.750019 c 0,-0.386206 -0.161746,-0.756525 -0.449758,-1.029485 -0.288132,-0.27308 -0.678758,-0.426464 -1.086109,-0.426464 h -3.071732 c -0.407351,0 -0.797977,0.153384 -1.086109,0.426464 -0.288012,0.27296 -0.449758,0.643279 -0.449758,1.029485 v 26.205892 c 0,0.386206 0.161746,0.756525 0.449758,1.029485 0.288132,0.27308 0.678758,0.426464 1.086109,0.426464 z"
     fill="url(#paint0_linear)"
     id="path2"
     style="fill:url(#linearGradient9249);fill-opacity:1;stroke-width:1.19458" />
  <defs
     id="defs9">
    <linearGradient
       id="paint0_linear"
       x1="8.1614866"
       y1="6.432292"
       x2="55.608185"
       y2="57.79351"
       gradientUnits="userSpaceOnUse"
       gradientTransform="matrix(1.194576,0,0,1.194576,-6.2264317,-6.2264316)"
       spreadMethod="pad">
      <stop
         stop-color="#FD3A84"
         id="stop4" />
      <stop
         offset="1"
         stop-color="#FFA68D"
         id="stop6"
         style="stop-color:#a50db7;stop-opacity:1" />
    </linearGradient>
    <linearGradient
       inkscape:collect="always"
       xlink:href="#paint0_linear"
       id="linearGradient9249"
       x1="3.4303224"
       y1="1.2572722"
       x2="60.510105"
       y2="63.22224"
       gradientUnits="userSpaceOnUse" />
  </defs>
</svg>
