<?xml version="1.0" encoding="UTF-8" standalone="no"?>
<svg
   width="64"
   height="64"
   viewBox="0 0 64 64"
   fill="none"
   version="1.1"
   id="svg11"
   sodipodi:docname="delete-green.svg"
   inkscape:version="1.1 (c4e8f9ed74, 2021-05-24)"
   xmlns:inkscape="http://www.inkscape.org/namespaces/inkscape"
   xmlns:sodipodi="http://sodipodi.sourceforge.net/DTD/sodipodi-0.dtd"
   xmlns="http://www.w3.org/2000/svg"
   xmlns:svg="http://www.w3.org/2000/svg">
  <sodipodi:namedview
     id="namedview13"
     pagecolor="#505050"
     bordercolor="#ffffff"
     borderopacity="1"
     inkscape:pageshadow="0"
     inkscape:pageopacity="0"
     inkscape:pagecheckerboard="1"
     showgrid="false"
     inkscape:zoom="10.265625"
     inkscape:cx="31.951294"
     inkscape:cy="31.951294"
     inkscape:window-width="1909"
     inkscape:window-height="2108"
     inkscape:window-x="1920"
     inkscape:window-y="-3"
     inkscape:window-maximized="1"
     inkscape:current-layer="svg11" />
  <path
     d="m 37.631624,51.411875 h 3.071751 c 0.407353,0 0.797982,-0.153384 1.086116,-0.426464 0.288014,-0.272961 0.449761,-0.64328 0.449761,-1.029487 V 23.750013 c 0,-0.386207 -0.161747,-0.756526 -0.449761,-1.029486 -0.288134,-0.273081 -0.678763,-0.426464 -1.086116,-0.426464 h -3.071751 c -0.407353,0 -0.797982,0.153383 -1.086116,0.426464 -0.288013,0.27296 -0.449759,0.643279 -0.449759,1.029486 v 26.205911 c 0,0.386207 0.161746,0.756526 0.449759,1.029487 0.288134,0.27308 0.678763,0.426464 1.086116,0.426464 z M 58.622125,10.646937 H 48.074433 L 43.722685,3.7678593 C 43.176522,2.9052553 42.403984,2.1914836 41.480333,1.6960687 40.556681,1.2006658 39.513331,0.94052284 38.452064,0.94100054 H 25.547936 C 24.487146,0.94094084 23.444274,1.201275 22.521101,1.696666 21.597927,2.192057 20.825747,2.9056137 20.279824,3.7678593 L 15.925567,10.646937 H 5.3778623 c -0.5431294,0 -1.0640154,0.204513 -1.448062,0.568619 C 3.5457537,11.579544 3.33,12.073263 3.33,12.588126 v 1.941187 c 0,0.514862 0.2157537,1.00858 0.5998003,1.372568 0.3840466,0.364108 0.9049326,0.568619 1.448062,0.568619 h 2.0478861 v 40.764937 c 0,1.544469 0.6472253,3.025744 1.799401,4.117826 C 10.377325,62.445465 11.93996,63.059 13.569252,63.059 h 36.861496 c 1.629292,0 3.191927,-0.613535 4.344103,-1.705737 1.152175,-1.092082 1.799401,-2.573357 1.799401,-4.117826 V 16.4705 h 2.047873 c 0.543178,0 1.064016,-0.204511 1.448074,-0.568619 C 60.454258,15.537893 60.67,15.044175 60.67,14.529313 v -1.941187 c 0,-0.514863 -0.215742,-1.008582 -0.599801,-1.37257 -0.384058,-0.364106 -0.904896,-0.568619 -1.448074,-0.568619 z M 25.323951,7.1175604 c 0.06845,-0.1079897 0.16533,-0.1972246 0.281086,-0.2591037 0.115755,-0.061879 0.246443,-0.094252 0.3794,-0.093894 h 12.031126 c 0.132718,-1.195e-4 0.263167,0.032253 0.378683,0.094133 0.115516,0.061879 0.212158,0.1511139 0.280489,0.2588647 l 2.234707,3.5293766 H 23.090558 Z M 50.430748,57.235437 H 13.569252 V 16.4705 H 50.430748 Z M 23.296624,51.411875 h 3.071752 c 0.407353,0 0.797982,-0.153384 1.086115,-0.426464 0.288013,-0.272961 0.44976,-0.64328 0.44976,-1.029487 V 23.750013 c 0,-0.386207 -0.161747,-0.756526 -0.44976,-1.029486 -0.288133,-0.273081 -0.678762,-0.426464 -1.086115,-0.426464 h -3.071752 c -0.407353,0 -0.797981,0.153383 -1.086115,0.426464 -0.288014,0.27296 -0.449761,0.643279 -0.449761,1.029486 v 26.205911 c 0,0.386207 0.161747,0.756526 0.449761,1.029487 0.288134,0.27308 0.678762,0.426464 1.086115,0.426464 z"
     fill="url(#paint0_linear)"
     id="path2"
     style="fill:url(#paint0_linear);fill-opacity:1;stroke-width:1.19458" />
  <defs
     id="defs9">
    <linearGradient
       id="paint0_linear"
       x1="62.831432"
       y1="63.335228"
       x2="8.0206671"
       y2="6.0278492"
       gradientUnits="userSpaceOnUse"
       gradientTransform="matrix(1.1945833,0,0,1.1945768,-6.2266665,-6.2264607)">
      <stop
         stop-color="#00B59C"
         id="stop4"
         style="stop-color:#00aa86;stop-opacity:1" />
      <stop
         offset="1"
         stop-color="#9CFFAC"
         id="stop6" />
    </linearGradient>
  </defs>
</svg>
