<?xml version="1.0" encoding="UTF-8" standalone="no"?>
<svg
   width="64"
   height="64"
   viewBox="0 0 64 64"
   fill="none"
   version="1.1"
   id="svg11"
   sodipodi:docname="download-amarok.svg"
   inkscape:version="1.1 (c4e8f9ed74, 2021-05-24)"
   xmlns:inkscape="http://www.inkscape.org/namespaces/inkscape"
   xmlns:sodipodi="http://sodipodi.sourceforge.net/DTD/sodipodi-0.dtd"
   xmlns:xlink="http://www.w3.org/1999/xlink"
   xmlns="http://www.w3.org/2000/svg"
   xmlns:svg="http://www.w3.org/2000/svg">
  <sodipodi:namedview
     id="namedview13"
     pagecolor="#505050"
     bordercolor="#ffffff"
     borderopacity="1"
     inkscape:pageshadow="0"
     inkscape:pageopacity="0"
     inkscape:pagecheckerboard="1"
     showgrid="false"
     inkscape:zoom="14.517786"
     inkscape:cx="31.995237"
     inkscape:cy="32.029677"
     inkscape:window-width="3840"
     inkscape:window-height="2116"
     inkscape:window-x="0"
     inkscape:window-y="0"
     inkscape:window-maximized="1"
     inkscape:current-layer="svg11" />
  <path
     d="m 34.88789,8.0878125 c 0.664241,0 1.202681,0.5385607 1.202681,1.2026812 V 28.957938 c 0,0.664241 0.538441,1.202681 1.202681,1.202681 h 0.197962 c 1.071468,0 1.608105,1.295408 0.850415,2.053097 l -5.079403,5.079404 c -0.469767,0.469767 -1.231185,0.469767 -1.700832,0 l -5.079523,-5.079404 c -0.757569,-0.757689 -0.221053,-2.053097 0.850415,-2.053097 h 0.197962 c 0.66424,0 1.202681,-0.53844 1.202681,-1.202681 V 9.2904937 c 0,-0.6641205 0.53856,-1.2026812 1.202681,-1.2026812 z m 8.560203,-6.154841 c 0,-0.6642287 -0.53844,-1.20268109 -1.202681,-1.20268109 H 22.578088 c -0.664241,0 -1.202681,0.53846439 -1.202681,1.20268109 V 21.600296 c 0,0.664241 -0.538441,1.202681 -1.202681,1.202681 H 9.5637549 c -1.0714686,0 -1.6081049,1.295528 -0.8504158,2.053097 L 31.561394,47.704129 c 0.469647,0.469647 1.231065,0.469647 1.700832,0 L 56.110161,24.856074 c 0.757689,-0.757569 0.221053,-2.053097 -0.850416,-2.053097 H 44.650774 c -0.66412,0 -1.202681,-0.53844 -1.202681,-1.202681 z M 58.163258,57.114869 c 0,-0.664241 -0.53844,-1.202802 -1.202681,-1.202802 H 7.8629233 c -0.6642408,0 -1.2026812,0.538561 -1.2026812,1.202681 v 4.95228 c 0,0.664241 0.5384404,1.202682 1.2026812,1.202682 H 56.960577 c 0.664241,0 1.202681,-0.538441 1.202681,-1.202682 z"
     fill="url(#paint0_linear)"
     id="path2"
     style="fill:url(#paint0_linear);fill-opacity:1.0;stroke:none;stroke-width:1.20268" />
  <defs
     id="defs9">
    <linearGradient
       id="paint0_linear"
       x1="32.4118"
       y1="58"
       x2="32.4118"
       y2="6"
       gradientUnits="userSpaceOnUse"
       xlink:href="#linearGradient27706"
       gradientTransform="matrix(1.2026811,0,0,1.2026811,-6.5692504,-6.4857964)">
      <stop
         stop-color="#00B59C"
         id="stop4"
         style="stop-color:#3f6fd2;stop-opacity:1" />
      <stop
         offset="1"
         stop-color="#9CFFAC"
         id="stop6"
         style="stop-color:#a60db7;stop-opacity:1" />
    </linearGradient>
    <linearGradient
       inkscape:collect="always"
       id="linearGradient27706">
      <stop
         style="stop-color:#b300b3;stop-opacity:1"
         offset="0"
         id="stop27702" />
      <stop
         style="stop-color:#3974d4;stop-opacity:1"
         offset="1"
         id="stop27704" />
    </linearGradient>
  </defs>
</svg>
