<?xml version="1.0" encoding="UTF-8" standalone="no"?>
<svg
   width="64"
   height="64"
   viewBox="0 0 64 64"
   fill="none"
   version="1.1"
   id="svg16"
   sodipodi:docname="journal.svg"
   inkscape:version="1.1 (c4e8f9ed74, 2021-05-24)"
   xmlns:inkscape="http://www.inkscape.org/namespaces/inkscape"
   xmlns:sodipodi="http://sodipodi.sourceforge.net/DTD/sodipodi-0.dtd"
   xmlns="http://www.w3.org/2000/svg"
   xmlns:svg="http://www.w3.org/2000/svg">
  <sodipodi:namedview
     id="namedview18"
     pagecolor="#505050"
     bordercolor="#ffffff"
     borderopacity="1"
     inkscape:pageshadow="0"
     inkscape:pageopacity="0"
     inkscape:pagecheckerboard="1"
     showgrid="false"
     inkscape:zoom="10.265625"
     inkscape:cx="31.951294"
     inkscape:cy="39.744292"
     inkscape:window-width="1909"
     inkscape:window-height="2108"
     inkscape:window-x="1920"
     inkscape:window-y="-3"
     inkscape:window-maximized="1"
     inkscape:current-layer="svg16" />
  <path
     d="M60.8703 3.12963C58.0311 0.290304 53.4353 0.289941 50.5956 3.12963C49.2018 4.52339 39.5419 14.1832 38.1926 15.5326H2.81636C1.81324 15.5326 1 16.3458 1 17.3489V61.1837C1 62.1868 1.81324 63.0001 2.81636 63.0001H46.6511C47.6543 63.0001 48.4675 62.1868 48.4675 61.1837V25.8075C49.7908 24.4842 59.4979 14.7771 60.8703 13.4047C63.7096 10.5653 63.7101 5.96933 60.8703 3.12963ZM44.8348 59.3672H4.63271V19.1651H34.56L32.8282 20.897C27.1742 26.551 22.7394 33.4658 19.9462 40.9615H10.0818C9.07868 40.9615 8.26543 41.7747 8.26543 42.7778C8.26543 43.7809 9.07868 44.593 10.0818 44.593H21.2212H21.2223C21.4229 44.593 21.6434 44.5539 21.8158 44.4943C29.7817 41.7388 37.1428 37.1319 43.1029 31.1718L44.8348 29.4402V59.3672ZM40.5343 28.6032C35.9201 33.2173 30.4082 36.9642 24.4208 39.5794C27.0359 33.5919 30.7827 28.0799 35.3969 23.4658L48.0269 10.8358L53.1642 15.9732C51.8501 17.2873 41.7846 27.3528 40.5343 28.6032ZM58.3016 10.8358L55.733 13.4046L50.5956 8.26714L53.1642 5.69833C54.5839 4.27867 56.8818 4.27854 58.3016 5.69833C59.7214 7.11812 59.7214 9.41593 58.3016 10.8358Z"
     fill="url(#paint0_linear)"
     stroke="url(#paint1_linear)"
     id="path2" />
  <defs
     id="defs14">
    <linearGradient
       id="paint0_linear"
       x1="60.9054"
       y1="2.77214"
       x2="36.7225"
       y2="63.4949"
       gradientUnits="userSpaceOnUse">
      <stop
         stop-color="#FE0F7C"
         id="stop4" />
      <stop
         offset="1"
         stop-color="#DF0066"
         id="stop6" />
    </linearGradient>
    <linearGradient
       id="paint1_linear"
       x1="60.9054"
       y1="2.77214"
       x2="36.7225"
       y2="63.4949"
       gradientUnits="userSpaceOnUse">
      <stop
         stop-color="#FE0F7C"
         id="stop9" />
      <stop
         offset="1"
         stop-color="#DF0066"
         id="stop11" />
    </linearGradient>
  </defs>
</svg>
