<?xml version="1.0" encoding="UTF-8" standalone="no"?>
<svg
   width="48"
   height="48"
   viewBox="0 0 48 48"
   fill="none"
   version="1.1"
   id="svg28"
   sodipodi:docname="reload.svg"
   inkscape:version="1.1 (c4e8f9ed74, 2021-05-24)"
   xmlns:inkscape="http://www.inkscape.org/namespaces/inkscape"
   xmlns:sodipodi="http://sodipodi.sourceforge.net/DTD/sodipodi-0.dtd"
   xmlns:xlink="http://www.w3.org/1999/xlink"
   xmlns="http://www.w3.org/2000/svg"
   xmlns:svg="http://www.w3.org/2000/svg">
  <sodipodi:namedview
     id="namedview30"
     pagecolor="#505050"
     bordercolor="#ffffff"
     borderopacity="1"
     inkscape:pageshadow="0"
     inkscape:pageopacity="0"
     inkscape:pagecheckerboard="1"
     showgrid="false"
     inkscape:zoom="13.6875"
     inkscape:cx="20.054795"
     inkscape:cy="32.365297"
     inkscape:window-width="3840"
     inkscape:window-height="2116"
     inkscape:window-x="0"
     inkscape:window-y="0"
     inkscape:window-maximized="1"
     inkscape:current-layer="svg28" />
  <g
     id="g25476"
     transform="matrix(0.26823425,0,0,0.26823425,-1.6196947,-1.6219158)">
    <path
       d="m 66.0848,10.5965 c 4.0916,-1.83626 9.2004,1.6871 8.8161,6.2664 0.0792,3.2365 -2.5996,5.5663 -5.4479,6.4156 -17.6323,6.7025 -32.439,20.601 -40.5205,37.8623 -8.2736,17.5022 -9.3474,38.3328 -2.9952,56.6502 5.7983,17.1 17.9714,31.837 33.5127,40.674 14.0833,8.102 30.8566,11.167 46.839,8.711 17.35,-2.56 33.648,-11.695 45.041,-25.215 10.58,-12.372 16.921,-28.382 17.689,-44.7484 1.051,-18.4778 -5.041,-37.231 -16.683,-51.4623 -8.488,-10.5817 -19.927,-18.5582 -32.552,-23.1834 -4.996,-1.469 -5.674,-9.2044 -1.153,-11.6834 4.171,-2.44461 8.647,0.8033 12.58,2.2839 20.447,9.3307 37.006,27.0854 45.019,48.3521 7.471,19.4992 7.72,41.7185 0.735,61.3895 -10.5,30.586 -38.938,53.804 -70.665,57.454 C 87.7296,182.727 68.4244,178.882 52.2502,169.299 35.5447,159.532 22.2187,143.958 15.1205,125.756 6.65475,104.328 6.97123,79.4808 16.07,58.3175 25.3609,36.3507 43.8861,18.5845 66.0848,10.5965 Z"
       fill="url(#paint0_linear)"
       stroke="url(#paint1_linear)"
       stroke-width="3"
       id="path2"
       style="fill:url(#linearGradient25392);fill-opacity:1;stroke:none" />
    <path
       d="m 78.6083,48.4703 c 18.966,-7.7469 42.3067,-0.8378 54.4677,15.7922 8.726,11.408 11.88,26.9018 8.444,40.9155 -3.007,12.957 -11.665,24.411 -23.171,30.792 -14.377,8.183 -33.0043,7.954 -47.1667,-0.62 -13.9024,-8.16 -23.0802,-23.791 -23.5211,-40.0999 -3.1195,-0.023 -6.2504,0.1607 -9.37,-0.1607 -2.4301,-0.5394 -3.5942,-3.707 -2.1249,-5.7384 4.8376,-8.1372 9.743,-16.2284 14.7049,-24.2851 1.2546,-2.6856 5.3915,-2.5135 6.5444,0.1606 4.9393,8.0224 9.8221,16.0906 14.6483,24.1818 1.3903,1.997 0.3052,4.9122 -1.9327,5.6467 -3.1987,0.3787 -6.42,0.1721 -9.6187,0.1836 0.5652,10.0074 5.3123,19.7514 13.1225,25.9494 8.5562,7.047 20.5146,9.514 31.094,6.37 15.259,-4.201 26.448,-19.97 25.16,-36.0379 -0.656,-16.8596 -14.863,-31.7107 -31.4218,-32.9387 -5.8322,-0.9067 -11.4497,1.1018 -17.0898,2.1118 -6.2052,0 -8.3188,-9.5144 -2.7691,-12.2229 z"
       fill="url(#paint2_linear)"
       stroke="url(#paint3_linear)"
       stroke-width="3"
       id="path4"
       style="fill:url(#linearGradient25104);fill-opacity:1;stroke:url(#linearGradient24874)" />
  </g>
  <defs
     id="defs26">
    <linearGradient
       id="linearGradient24944"
       x1="35.5163"
       y1="93.624603"
       x2="142.882"
       y2="93.624603"
       gradientUnits="userSpaceOnUse">
      <stop
         stop-color="#FF823B"
         id="stop24940"
         style="stop-color:#a210b8;stop-opacity:1" />
      <stop
         offset="0.00000001"
         stop-color="#FF005B"
         id="stop24942"
         style="stop-opacity:0" />
    </linearGradient>
    <linearGradient
       id="paint0_linear"
       x1="9.1046572"
       y1="10.146009"
       x2="183.02478"
       y2="182.15805"
       gradientUnits="userSpaceOnUse"
       spreadMethod="pad">
      <stop
         stop-color="#FF823B"
         id="stop6"
         style="stop-color:#ab0eaf;stop-opacity:1" />
      <stop
         offset="0.986957"
         stop-color="#FF005B"
         id="stop8" />
    </linearGradient>
    <linearGradient
       id="paint3_linear"
       x1="35.5163"
       y1="93.624603"
       x2="142.882"
       y2="93.624603"
       gradientUnits="userSpaceOnUse">
      <stop
         stop-color="#FF823B"
         id="stop21"
         style="stop-color:#a210b8;stop-opacity:1" />
      <stop
         offset="0.986957"
         stop-color="#FF005B"
         id="stop23" />
    </linearGradient>
    <linearGradient
       inkscape:collect="always"
       xlink:href="#linearGradient24944"
       id="linearGradient24874"
       gradientUnits="userSpaceOnUse"
       x1="34.077015"
       y1="43.259949"
       x2="143.47266"
       y2="142.28419" />
    <linearGradient
       inkscape:collect="always"
       xlink:href="#paint0_linear"
       id="linearGradient25104"
       gradientUnits="userSpaceOnUse"
       x1="34.077015"
       y1="43.259949"
       x2="143.47266"
       y2="142.28419"
       spreadMethod="pad" />
    <linearGradient
       inkscape:collect="always"
       xlink:href="#paint0_linear"
       id="linearGradient25392"
       gradientUnits="userSpaceOnUse"
       x1="9.1046572"
       y1="10.146009"
       x2="183.02478"
       y2="182.15805"
       spreadMethod="pad" />
  </defs>
</svg>
