<?xml version="1.0" encoding="UTF-8" standalone="no"?>
<svg
   width="24"
   height="24"
   viewBox="0 0 24 24"
   fill="none"
   version="1.1"
   id="svg11"
   sodipodi:docname="system-upgrade.svg"
   inkscape:version="1.1 (c4e8f9ed74, 2021-05-24)"
   xmlns:inkscape="http://www.inkscape.org/namespaces/inkscape"
   xmlns:sodipodi="http://sodipodi.sourceforge.net/DTD/sodipodi-0.dtd"
   xmlns:xlink="http://www.w3.org/1999/xlink"
   xmlns="http://www.w3.org/2000/svg"
   xmlns:svg="http://www.w3.org/2000/svg">
  <sodipodi:namedview
     id="namedview13"
     pagecolor="#505050"
     bordercolor="#ffffff"
     borderopacity="1"
     inkscape:pageshadow="0"
     inkscape:pageopacity="0"
     inkscape:pagecheckerboard="1"
     showgrid="false"
     inkscape:zoom="13.6875"
     inkscape:cx="12.018265"
     inkscape:cy="35.360731"
     inkscape:window-width="3840"
     inkscape:window-height="2116"
     inkscape:window-x="0"
     inkscape:window-y="0"
     inkscape:window-maximized="1"
     inkscape:current-layer="svg11" />
  <path
     d="m 22.912122,18.054327 c 0.140893,-0.14053 0.252736,-0.307447 0.328993,-0.49131 0.07626,-0.183863 0.115474,-0.38092 0.115474,-0.579913 0,-0.198993 -0.03922,-0.39605 -0.115474,-0.579913 -0.07626,-0.183742 -0.1881,-0.35078 -0.328993,-0.49131 L 12.853522,5.8532939 c -0.111964,-0.1122061 -0.244989,-0.2012325 -0.39145,-0.2619715 -0.14634,-0.060739 -0.303331,-0.092004 -0.461896,-0.092004 -0.158566,0 -0.315436,0.031265 -0.461897,0.092004 -0.146461,0.060739 -0.279486,0.1497654 -0.39145,0.2619715 L 1.0882409,15.911881 c -0.59310634,0.593107 -0.59310634,1.549339 0,2.142446 0.5931064,0.593106 1.5493391,0.593106 2.1424455,0 l 8.7755416,-8.7634492 8.775553,8.7755532 c 0.581002,0.581002 1.549339,0.581002 2.130341,-0.0121 z"
     fill="url(#paint0_linear)"
     id="path2"
     style="fill:url(#paint0_linear);stroke-width:1.21042;fill-opacity:1.0;stroke:none;fill-rule:evenodd" />
  <defs
     id="defs9">
    <linearGradient
       id="paint0_linear"
       x1="21.6457"
       y1="17.969101"
       x2="12.5718"
       y2="1.98413"
       gradientUnits="userSpaceOnUse"
       gradientTransform="matrix(1.2104211,0,0,1.2104211,-2.9877433,-3.2880608)"
       xlink:href="#linearGradient27706">
      <stop
         stop-color="#FE7970"
         id="stop4"
         style="stop-color:#a70cb6;stop-opacity:1" />
      <stop
         offset="1"
         stop-color="#DC3282"
         id="stop6"
         style="stop-color:#3e6fd3;stop-opacity:1" />
    </linearGradient>
    <linearGradient
       inkscape:collect="always"
       id="linearGradient27706">
      <stop
         style="stop-color:#b300b3;stop-opacity:1"
         offset="0"
         id="stop27702" />
      <stop
         style="stop-color:#3974d4;stop-opacity:1"
         offset="1"
         id="stop27704" />
    </linearGradient>
  </defs>
</svg>
