<?xml version="1.0" encoding="UTF-8" standalone="no"?>
<!-- Created with Inkscape (http://www.inkscape.org/) -->

<svg
   xmlns:dc="http://purl.org/dc/elements/1.1/"
   xmlns:cc="http://creativecommons.org/ns#"
   xmlns:rdf="http://www.w3.org/1999/02/22-rdf-syntax-ns#"
   xmlns:svg="http://www.w3.org/2000/svg"
   xmlns="http://www.w3.org/2000/svg"
   xmlns:xlink="http://www.w3.org/1999/xlink"
   xmlns:sodipodi="http://sodipodi.sourceforge.net/DTD/sodipodi-0.dtd"
   xmlns:inkscape="http://www.inkscape.org/namespaces/inkscape"
   width="3840"
   height="2160"
   viewBox="0 0 3840 2160"
   version="1.1"
   id="svg8"
   inkscape:version="0.92.2 2405546, 2018-03-11"
   sodipodi:docname="breath-sgs-2160p.svg">
  <defs
     id="defs2">
    <linearGradient
       id="linearGradient1066"
       inkscape:collect="always">
      <stop
         id="stop1062"
         offset="0"
         style="stop-color:#1abc9c;stop-opacity:1" />
      <stop
         id="stop1064"
         offset="1"
         style="stop-color:#222d32;stop-opacity:1" />
    </linearGradient>
    <inkscape:path-effect
       effect="skeletal"
       id="path-effect2817"
       is_visible="true"
       pattern="m -135.1364,29.054257 c 0,-2.76 2.24,-5 5,-5 2.76,0 5,2.24 5,5 0,2.76 -2.24,5 -5,5 -2.76,0 -5,-2.24 -5,-5 z"
       copytype="single_stretched"
       prop_scale="0.26458333"
       scale_y_rel="false"
       spacing="0"
       normal_offset="0"
       tang_offset="0"
       prop_units="false"
       vertical_pattern="false"
       fuse_tolerance="0" />
    <inkscape:path-effect
       effect="skeletal"
       id="path-effect2813"
       is_visible="true"
       pattern="m -149.93821,33.597839 c 0,-2.76 2.24,-5 5,-5 2.76,0 5,2.24 5,5 0,2.76 -2.24,5 -5,5 -2.76,0 -5,-2.24 -5,-5 z"
       copytype="single_stretched"
       prop_scale="0.26458333"
       scale_y_rel="false"
       spacing="0"
       normal_offset="0"
       tang_offset="0"
       prop_units="false"
       vertical_pattern="false"
       fuse_tolerance="0" />
    <inkscape:path-effect
       effect="skeletal"
       id="path-effect2809"
       is_visible="true"
       pattern="m -151.00728,34.934187 c 0,-2.76 2.24,-5 5,-5 2.76,0 5,2.24 5,5 0,2.76 -2.24,5 -5,5 -2.76,0 -5,-2.24 -5,-5 z"
       copytype="single_stretched"
       prop_scale="0.26458333"
       scale_y_rel="false"
       spacing="0"
       normal_offset="0"
       tang_offset="0"
       prop_units="false"
       vertical_pattern="false"
       fuse_tolerance="0" />
    <inkscape:path-effect
       effect="skeletal"
       id="path-effect2805"
       is_visible="true"
       pattern="m -149.93821,38.399648 c 0,-2.76 2.24,-5 5,-5 2.76,0 5,2.24 5,5 0,2.76 -2.24,5 -5,5 -2.76,0 -5,-2.24 -5,-5 z"
       copytype="single_stretched"
       prop_scale="0.26458333"
       scale_y_rel="false"
       spacing="0"
       normal_offset="0"
       tang_offset="0"
       prop_units="false"
       vertical_pattern="false"
       fuse_tolerance="0" />
    <inkscape:path-effect
       effect="skeletal"
       id="path-effect967"
       is_visible="true"
       pattern="m 26.391287,1053.6404 c 0,-2.76 2.24,-5 5,-5 2.76,0 5,2.24 5,5 0,2.76 -2.24,5 -5,5 -2.76,0 -5,-2.24 -5,-5 z"
       copytype="single_stretched"
       prop_scale="0.26458333"
       scale_y_rel="false"
       spacing="0"
       normal_offset="0"
       tang_offset="0"
       prop_units="false"
       vertical_pattern="false"
       fuse_tolerance="0" />
    <inkscape:path-effect
       effect="skeletal"
       id="path-effect963"
       is_visible="true"
       pattern="M 0,5 C 0,2.24 2.24,0 5,0 7.76,0 10,2.24 10,5 10,7.76 7.76,10 5,10 2.24,10 0,7.76 0,5 Z"
       copytype="single_stretched"
       prop_scale="0.26458333"
       scale_y_rel="false"
       spacing="0"
       normal_offset="0"
       tang_offset="0"
       prop_units="false"
       vertical_pattern="false"
       fuse_tolerance="0" />
    <inkscape:path-effect
       effect="skeletal"
       id="path-effect959"
       is_visible="true"
       pattern="M 0,5 C 0,2.24 2.24,0 5,0 7.76,0 10,2.24 10,5 10,7.76 7.76,10 5,10 2.24,10 0,7.76 0,5 Z"
       copytype="single_stretched"
       prop_scale="0.26458333"
       scale_y_rel="false"
       spacing="0"
       normal_offset="0"
       tang_offset="0"
       prop_units="false"
       vertical_pattern="false"
       fuse_tolerance="0" />
    <inkscape:path-effect
       effect="skeletal"
       id="path-effect955"
       is_visible="true"
       pattern="m -60.872213,1131.2822 c 0,-2.76 2.24,-5 5,-5 2.76,0 5,2.24 5,5 0,2.76 -2.24,5 -5,5 -2.76,0 -5,-2.24 -5,-5 z"
       copytype="single_stretched"
       prop_scale="0.26458333"
       scale_y_rel="false"
       spacing="0"
       normal_offset="0"
       tang_offset="0"
       prop_units="false"
       vertical_pattern="false"
       fuse_tolerance="0" />
    <inkscape:path-effect
       effect="skeletal"
       id="path-effect951"
       is_visible="true"
       pattern="m 48.975577,1143.8439 c 0,-2.76 2.24,-5 5,-5 2.76,0 5,2.24 5,5 0,2.76 -2.24,5 -5,5 -2.76,0 -5,-2.24 -5,-5 z"
       copytype="single_stretched"
       prop_scale="0.26458333"
       scale_y_rel="false"
       spacing="0"
       normal_offset="0"
       tang_offset="0"
       prop_units="false"
       vertical_pattern="false"
       fuse_tolerance="0" />
    <inkscape:path-effect
       effect="skeletal"
       id="path-effect947"
       is_visible="true"
       pattern="M 0,5 C 0,2.24 2.24,0 5,0 7.76,0 10,2.24 10,5 10,7.76 7.76,10 5,10 2.24,10 0,7.76 0,5 Z"
       copytype="single_stretched"
       prop_scale="0.26458333"
       scale_y_rel="false"
       spacing="0"
       normal_offset="0"
       tang_offset="0"
       prop_units="false"
       vertical_pattern="false"
       fuse_tolerance="0" />
    <inkscape:path-effect
       effect="skeletal"
       id="path-effect943"
       is_visible="true"
       pattern="M 0,5 C 0,2.24 2.24,0 5,0 7.76,0 10,2.24 10,5 10,7.76 7.76,10 5,10 2.24,10 0,7.76 0,5 Z"
       copytype="single_stretched"
       prop_scale="0.26458333"
       scale_y_rel="false"
       spacing="0"
       normal_offset="0"
       tang_offset="0"
       prop_units="false"
       vertical_pattern="false"
       fuse_tolerance="0" />
    <inkscape:path-effect
       effect="skeletal"
       id="path-effect939"
       is_visible="true"
       pattern="M 0,5 C 0,2.24 2.24,0 5,0 7.76,0 10,2.24 10,5 10,7.76 7.76,10 5,10 2.24,10 0,7.76 0,5 Z"
       copytype="single_stretched"
       prop_scale="0.26458333"
       scale_y_rel="false"
       spacing="0"
       normal_offset="0"
       tang_offset="0"
       prop_units="false"
       vertical_pattern="false"
       fuse_tolerance="0" />
    <inkscape:path-effect
       effect="skeletal"
       id="path-effect935"
       is_visible="true"
       pattern="M 0,5 C 0,2.24 2.24,0 5,0 7.76,0 10,2.24 10,5 10,7.76 7.76,10 5,10 2.24,10 0,7.76 0,5 Z"
       copytype="single_stretched"
       prop_scale="0.26458333"
       scale_y_rel="false"
       spacing="0"
       normal_offset="0"
       tang_offset="0"
       prop_units="false"
       vertical_pattern="false"
       fuse_tolerance="0" />
    <inkscape:path-effect
       effect="skeletal"
       id="path-effect931"
       is_visible="true"
       pattern="M 0,5 C 0,2.24 2.24,0 5,0 7.76,0 10,2.24 10,5 10,7.76 7.76,10 5,10 2.24,10 0,7.76 0,5 Z"
       copytype="single_stretched"
       prop_scale="0.26458333"
       scale_y_rel="false"
       spacing="0"
       normal_offset="0"
       tang_offset="0"
       prop_units="false"
       vertical_pattern="false"
       fuse_tolerance="0" />
    <inkscape:path-effect
       effect="skeletal"
       id="path-effect927"
       is_visible="true"
       pattern="m 4.2079269,1077.6947 c 0,-2.76 2.24,-5 4.99999,-5 2.7600001,0 5.0000001,2.24 5.0000001,5 0,2.76 -2.24,5 -5.0000001,5 -2.75999,0 -4.99999,-2.24 -4.99999,-5 z"
       copytype="single_stretched"
       prop_scale="0.18172786"
       scale_y_rel="false"
       spacing="0"
       normal_offset="0"
       tang_offset="0"
       prop_units="false"
       vertical_pattern="false"
       fuse_tolerance="0" />
    <inkscape:path-effect
       effect="skeletal"
       id="path-effect923"
       is_visible="true"
       pattern="M 0,5 C 0,2.24 2.24,0 5,0 7.76,0 10,2.24 10,5 10,7.76 7.76,10 5,10 2.24,10 0,7.76 0,5 Z"
       copytype="single_stretched"
       prop_scale="0.26458333"
       scale_y_rel="false"
       spacing="0"
       normal_offset="0"
       tang_offset="0"
       prop_units="false"
       vertical_pattern="false"
       fuse_tolerance="0" />
    <inkscape:path-effect
       effect="bspline"
       id="path-effect921"
       is_visible="true"
       weight="33.333333"
       steps="2"
       helper_size="0"
       apply_no_weight="true"
       apply_with_weight="true"
       only_selected="false" />
    <inkscape:path-effect
       effect="skeletal"
       id="path-effect917"
       is_visible="true"
       pattern="M 0,5 C 0,2.24 2.24,0 5,0 7.76,0 10,2.24 10,5 10,7.76 7.76,10 5,10 2.24,10 0,7.76 0,5 Z"
       copytype="single_stretched"
       prop_scale="0.26458333"
       scale_y_rel="false"
       spacing="0"
       normal_offset="0"
       tang_offset="0"
       prop_units="false"
       vertical_pattern="false"
       fuse_tolerance="0" />
    <inkscape:path-effect
       effect="bspline"
       id="path-effect915"
       is_visible="true"
       weight="33.333333"
       steps="2"
       helper_size="0"
       apply_no_weight="true"
       apply_with_weight="true"
       only_selected="false" />
    <inkscape:path-effect
       effect="skeletal"
       id="path-effect911"
       is_visible="true"
       pattern="M 0,5 C 0,2.24 2.24,0 5,0 7.76,0 10,2.24 10,5 10,7.76 7.76,10 5,10 2.24,10 0,7.76 0,5 Z"
       copytype="single_stretched"
       prop_scale="0.26458333"
       scale_y_rel="false"
       spacing="0"
       normal_offset="0"
       tang_offset="0"
       prop_units="false"
       vertical_pattern="false"
       fuse_tolerance="0" />
    <inkscape:path-effect
       effect="bspline"
       id="path-effect909"
       is_visible="true"
       weight="33.333333"
       steps="2"
       helper_size="0"
       apply_no_weight="true"
       apply_with_weight="true"
       only_selected="false" />
    <linearGradient
       inkscape:collect="always"
       xlink:href="#linearGradient1066"
       id="linearGradient918"
       gradientUnits="userSpaceOnUse"
       x1="84.945465"
       y1="57.314629"
       x2="84.945465"
       y2="253.90862"
       gradientTransform="matrix(12.810982,0,0,4.9448606,720.46581,682.76647)" />
    <linearGradient
       inkscape:collect="always"
       xlink:href="#linearGradient1066"
       id="linearGradient920"
       gradientUnits="userSpaceOnUse"
       x1="84.945465"
       y1="57.314629"
       x2="84.945465"
       y2="253.90862"
       gradientTransform="matrix(12.810982,0,0,4.9448606,720.46581,678.76647)" />
    <linearGradient
       inkscape:collect="always"
       xlink:href="#linearGradient1066"
       id="linearGradient922"
       gradientUnits="userSpaceOnUse"
       x1="84.945465"
       y1="57.314629"
       x2="84.945465"
       y2="253.90862"
       gradientTransform="matrix(12.810982,0,0,4.9448606,720.46581,678.76647)" />
    <linearGradient
       inkscape:collect="always"
       xlink:href="#linearGradient1066"
       id="linearGradient924"
       gradientUnits="userSpaceOnUse"
       x1="84.945465"
       y1="57.314629"
       x2="84.945465"
       y2="253.90862"
       gradientTransform="matrix(12.685707,0,0,4.9448606,747.84193,678.76647)" />
    <filter
       inkscape:collect="always"
       style="color-interpolation-filters:sRGB"
       id="filter1033"
       x="-0.0095630987"
       width="1.0191262"
       y="-0.016103564"
       height="1.0322071">
      <feGaussianBlur
         inkscape:collect="always"
         stdDeviation="1.083786"
         id="feGaussianBlur1035" />
    </filter>
    <linearGradient
       gradientTransform="translate(-269.48465,-2424.0619)"
       inkscape:collect="always"
       xlink:href="#linearGradient1066"
       id="linearGradient951"
       x1="1709.6133"
       y1="990.12109"
       x2="1709.6133"
       y2="1020.9722"
       gradientUnits="userSpaceOnUse" />
    <linearGradient
       inkscape:collect="always"
       xlink:href="#linearGradient1066"
       id="linearGradient1118"
       x1="1676.8691"
       y1="850.01556"
       x2="1676.8691"
       y2="887.96545"
       gradientUnits="userSpaceOnUse"
       gradientTransform="matrix(1.9599989,0,0,1.9599989,46.379657,-43.124231)" />
    <linearGradient
       inkscape:collect="always"
       xlink:href="#linearGradient1066"
       id="linearGradient1126"
       x1="1708.5138"
       y1="860.6637"
       x2="1708.5138"
       y2="900.19226"
       gradientUnits="userSpaceOnUse"
       gradientTransform="matrix(1.9599989,0,0,1.9599989,45.872368,-43.601129)" />
  </defs>
  <sodipodi:namedview
     id="base"
     pagecolor="#878787"
     bordercolor="#b71515"
     borderopacity="1"
     inkscape:pageopacity="0"
     inkscape:pageshadow="2"
     inkscape:zoom="0.49497475"
     inkscape:cx="1711.8623"
     inkscape:cy="866.38413"
     inkscape:document-units="px"
     inkscape:current-layer="layer1"
     showgrid="false"
     inkscape:window-width="3840"
     inkscape:window-height="2068"
     inkscape:window-x="0"
     inkscape:window-y="0"
     inkscape:window-maximized="1"
     units="px"
     borderlayer="true"
     inkscape:showpageshadow="false"
     inkscape:pagecheckerboard="true" />
  <metadata
     id="metadata5">
    <rdf:RDF>
      <cc:Work
         rdf:about="">
        <dc:format>image/svg+xml</dc:format>
        <dc:type
           rdf:resource="http://purl.org/dc/dcmitype/StillImage" />
        <dc:title></dc:title>
      </cc:Work>
    </rdf:RDF>
  </metadata>
  <g
     inkscape:label="Ebene 1"
     inkscape:groupmode="layer"
     id="layer1"
     transform="translate(0,1068.75)">
    <path
       style="opacity:1;fill:#002b00;fill-opacity:1;fill-rule:nonzero;stroke:none;stroke-width:4.91338587;stroke-miterlimit:4;stroke-dasharray:none;stroke-opacity:1"
       d=""
       id="path2839"
       inkscape:connector-curvature="0"
       transform="translate(0,11.249983)" />
    <path
       style="opacity:1;fill:#ffcc00;fill-opacity:1;fill-rule:nonzero;stroke:none;stroke-width:4.91338587;stroke-miterlimit:4;stroke-dasharray:none;stroke-opacity:1"
       d="m 2117.9485,-1353.9056 c -90.6146,-36.658 -144.8606,-54.0984 -182.8111,-58.775 -12.2814,-1.5134 -37.2836,-1.2892 -48.736,0.4371 -24.3504,3.6705 -44.7469,10.8513 -83.0097,29.2246 -9.7809,4.6967 -17.7834,8.1267 -17.7834,7.6223 0,-1.9962 5.3447,-14.9634 8.7242,-21.1662 22.1378,-40.6333 66.1853,-59.599 138.417,-59.599 21.1021,0 25.6856,2.5769 44.6893,25.125 22.0333,26.1426 29.2142,30.9703 65.4808,44.0218 36.3749,13.0904 99.4612,37.0983 101.1163,38.4804 0.1807,0.1509 0.1807,1.3488 0,2.6621 -0.3218,2.3386 -0.8583,2.1734 -26.0874,-8.0331 z"
       id="path2879"
       inkscape:connector-curvature="0" />
    <path
       style="opacity:1;fill:#ffcc00;fill-opacity:1;fill-rule:nonzero;stroke:none;stroke-width:4.91338587;stroke-miterlimit:4;stroke-dasharray:none;stroke-opacity:1"
       d="m 2231.0856,-1559.2852 c -39.2359,-14.1343 -116.9684,-40.3029 -134.3503,-45.2291 -19.4755,-5.5195 -31.5959,-7.9692 -45.53,-9.2025 -26.6239,-2.3564 -44.9366,-0.6527 -66.2611,6.1646 -15.6767,5.0118 -26.3244,9.5263 -57.937,24.5648 -13.5015,6.4228 -24.7675,11.4586 -25.0355,11.1906 -0.268,-0.268 0.1651,-2.2013 0.9624,-4.2962 1.3882,-3.6472 2.2842,-4.2047 21.1064,-13.1313 22.9206,-10.8705 45.9858,-20.1135 59.5577,-23.8668 17.8493,-4.9363 28.2335,-5.9911 53.4443,-5.4286 20.4177,0.4555 24.3222,0.8305 37.0593,3.5589 27.2451,5.8362 56.4639,14.9091 99.9102,31.0235 23.5104,8.7201 86.3489,33.504 87.294,34.4293 1.3875,1.3585 -5.4412,-0.8508 -30.2204,-9.7772 z"
       id="path2881"
       inkscape:connector-curvature="0" />
    <g
       id="g1080"
       transform="translate(2063.4023,-2384.9467)">
      <path
         sodipodi:nodetypes="ccscscssssccccsssscc"
         inkscape:connector-curvature="0"
         id="path2835"
         d="m 1475.6515,896.75431 c -1.1563,-0.53037 -15.8189,-6.59869 -32.5837,-13.48517 -58.4754,-24.01985 -95.2692,-40.14482 -168.1743,-73.70273 -72.1948,-33.23104 -128.755,-58.85724 -147.4151,-66.79055 -9.3941,-3.99391 -17.0801,-7.59499 -17.0801,-8.00238 0,-0.40741 1.0641,-1.07616 2.3649,-1.48611 4.0513,-1.27691 52.686,-23.32937 106.4227,-48.2553 175.6634,-81.48203 238.2324,-106.30752 300.6113,-119.27362 24.5368,-5.10024 38.0454,-6.54818 66.4032,-7.11758 43.8527,-0.88051 78.6779,3.54669 131.1276,16.66974 51.4685,12.87757 91.3495,25.91257 247.3424,80.84311 l 27.591,9.71579 v 96.45318 96.45318 l -8.6715,-3.69026 c -31.9436,-13.59401 -99.0111,-39.08952 -128.164,-48.72119 -50.5689,-16.70715 -54.5049,-65.02977 -88.7128,-64.15722 -39.4019,1.00501 -133.8216,-2.46243 -156.5223,88.93086 -5.0813,20.45734 -125.7525,64.46553 -127.1291,65.77385 -1.2455,1.18359 -4.644,1.11129 -7.4102,-0.1576 z"
         style="opacity:1;fill:#1abd9d;fill-opacity:1;fill-rule:nonzero;stroke:none;stroke-width:4.91338539;stroke-miterlimit:4;stroke-dasharray:none;stroke-opacity:1" />
      <path
         sodipodi:nodetypes="cc"
         inkscape:original-d="m 150.08916,1166.5659 c 2.11615,-11.6521 54.76206,-3.2279 53.02674,-15.646"
         inkscape:path-effect="#path-effect927"
         inkscape:connector-curvature="0"
         id="path925"
         d="m 150.08916,1166.5659 c -0.0284,-0.01 -0.27154,-0.8904 0.70075,-2.1859 0.46021,-0.6122 1.11387,-1.2058 2.01589,-1.7562 1.74566,-1.0693 3.78771,-1.7671 6.56346,-2.3814 0,0 0,0 0,0 5.37047,-1.2038 10.53065,-1.5843 17.6852,-2.0566 -0.0986,0.01 1.02899,-0.068 0.93045,-0.062 3.53489,-0.2383 6.45875,-0.4229 9.58543,-0.7118 3.13919,-0.2916 5.65396,-0.5945 8.12714,-1.1224 2.4468,-0.5399 4.04692,-1.0227 5.43489,-1.9881 0,0 0,0 0,0 0.66274,-0.4611 1.10664,-0.9349 1.38756,-1.4322 0.62393,-1.0731 0.47628,-1.933 0.59597,-1.9497 -0.0315,0 0.60083,0.7208 0.0234,2.2386 -0.25034,0.6403 -0.71245,1.3031 -1.42679,1.8989 0,0 0,0 0,0 -1.4288,1.1951 -3.23006,1.9404 -5.68968,2.5825 -2.50815,0.6718 -5.13775,1.0937 -8.27621,1.4582 -3.08518,0.3598 -6.17411,0.5982 -9.63785,0.8381 -0.31024,0.022 -0.62138,0.043 -0.93389,0.064 -7.40139,0.4939 -12,0.6887 -17.52139,1.6613 0,0 0,0 0,0 -2.77062,0.4962 -4.63636,0.973 -6.36648,1.83 -0.87283,0.4338 -1.49026,0.8627 -1.97196,1.3416 -0.93898,0.9296 -1.10508,1.755 -1.22587,1.7331 z"
         style="fill:#000000;stroke:none;stroke-width:0.33717966px;stroke-linecap:butt;stroke-linejoin:miter;stroke-opacity:1" />
      <path
         inkscape:original-d="m 188.62391,1158.0172 c -8.98728,-20.8033 25.2874,-11.9113 47.44034,-6.949"
         inkscape:path-effect="#path-effect951"
         inkscape:connector-curvature="0"
         id="path949"
         d="m 188.62391,1158.0172 c 0.20082,-0.087 -2.33555,-1.7654 -2.285,-6.5327 0,0 0,0 0,0 0.0306,-1.5444 0.6102,-3.3914 2.10484,-4.809 1.40258,-1.2741 3.19863,-2.0461 5.15828,-2.4692 2.2575,-0.5134 4.60101,-0.6601 7.09521,-0.6185 2.07837,0.032 4.19812,0.1778 6.38105,0.4249 3.96968,0.4492 7.84077,1.1999 11.19811,1.9205 0,0 0,0 0,0 10.62839,2.2739 17.878,4.7326 17.78786,5.135 -0.15162,0.6769 -7.63987,-0.8639 -18.25648,-2.7313 0,0 0,0 0,0 -3.32657,-0.5831 -7.21724,-1.2626 -11.02777,-1.6965 -2.11851,-0.2413 -4.15291,-0.4018 -6.14425,-0.467 -2.39246,-0.075 -4.52498,-0.021 -6.55032,0.3563 -1.74847,0.3483 -3.20383,0.8175 -4.26979,1.7092 -1.08834,0.8489 -1.65104,2.1953 -1.80774,3.3611 0,0 0,0 0,0 -0.52939,3.7499 0.90722,6.2914 0.616,6.4172 z"
         style="fill:#000000;stroke:none;stroke-width:0.26458332px;stroke-linecap:butt;stroke-linejoin:miter;stroke-opacity:1" />
      <path
         inkscape:original-d="m 139.4463,1148.7964 c -0.46642,-17.407 21.52754,-2.6799 41.15951,0.6682"
         inkscape:path-effect="#path-effect955"
         inkscape:connector-curvature="0"
         id="path953"
         d="m 139.4463,1148.7964 c 0.0868,-0 -1.28133,-1.9402 0.0854,-5.4587 0,0 0,0 0,0 0.47861,-1.1879 1.44222,-2.4432 2.9717,-3.1965 1.41009,-0.6647 2.99293,-0.8991 4.63731,-0.8477 0,0 0,0 0,0 1.86246,0.039 3.71236,0.3465 5.65414,0.7997 1.69696,0.3931 3.40318,0.8699 5.16049,1.4169 2.83603,0.8826 5.84892,1.9696 8.25582,2.8179 0,0 1e-5,0 1e-5,0 8.38076,2.9443 14.45589,4.7772 14.39461,5.1366 -0.1249,0.7323 -6.50321,-0.1503 -15.1634,-2.7929 0,0 -1e-5,0 -1e-5,0 -2.59669,-0.7899 -5.37673,-1.7325 -8.2739,-2.636 -1.72459,-0.5378 -3.36034,-1.0175 -4.98509,-1.4342 -1.86068,-0.4738 -3.51141,-0.8269 -5.14805,-0.9441 0,0 0,0 0,0 -1.44423,-0.086 -2.66244,-0.039 -3.6989,0.3742 -1.0477,0.3823 -1.84808,1.1979 -2.31672,2.0108 0,0 0,0 0,0 -1.47075,2.4925 -1.26246,4.7457 -1.57345,4.754 z"
         style="fill:#000000;stroke:none;stroke-width:0.26458332px;stroke-linecap:butt;stroke-linejoin:miter;stroke-opacity:1" />
      <path
         inkscape:original-d="m 128.62188,1195.1677 c 51.97189,-19.2959 62.92919,22.0085 114.79226,-35.5469"
         inkscape:path-effect="#path-effect967"
         inkscape:connector-curvature="0"
         id="path965"
         d="m 128.62188,1195.1677 c -0.0319,-0.086 6.18425,-3.6224 17.5847,-5.628 0,0 0,0 0,0 4.38534,-0.7702 9.40957,-1.2345 15.01703,-1.1375 7.64753,0.136 16.05896,1.6352 24.89553,2.0219 1.61545,0.07 3.25058,0.088 4.8908,0.035 2.31167,-0.076 4.56837,-0.2919 6.76441,-0.6801 4.51154,-0.7913 8.75428,-2.3003 12.57726,-4.1567 5.64022,-2.737 10.63173,-6.3106 14.70434,-9.5507 11.66414,-9.2856 18.04075,-16.7366 18.35819,-16.4505 0.0466,0.042 -5.42102,8.1999 -17.02419,18.0708 -4.04138,3.4401 -9.07459,7.2163 -14.92824,10.1718 -3.97492,2.0056 -8.43096,3.6353 -13.22548,4.5042 -2.33369,0.42 -4.71641,0.6553 -7.13886,0.7361 -1.71906,0.057 -3.4233,0.036 -5.09887,-0.045 -9.10356,-0.4346 -17.42166,-2.0362 -24.84097,-2.3277 -5.46086,-0.217 -10.35602,0.079 -14.66655,0.6508 0,0 -1e-5,0 -1e-5,0 -11.12492,1.4733 -17.74257,4.1264 -17.86909,3.7856 z"
         style="fill:#ff0000;stroke:none;stroke-width:0.26458332px;stroke-linecap:butt;stroke-linejoin:miter;stroke-opacity:1" />
      <path
         inkscape:connector-curvature="0"
         id="path2831"
         d="m -0.32377667,819.24218 0.005256,-54.80078 17.92495067,-8.48378 c 48.339276,-22.87873 56.481865,-26.58497 71.968113,-32.75751 49.189987,-19.60624 68.668747,-19.58759 117.682777,0.11273 11.3547,4.56381 72.53757,30.49691 72.96976,30.92911 0.15339,0.15338 -3.01957,1.56181 -7.05102,3.12982 -52.65394,20.47959 -209.535223,87.39187 -263.7973725,112.51366 -4.9390566,2.28664 -9.14381655,4.15752 -9.34391165,4.15752 -0.20009496,0 -0.3614438,-24.66034 -0.35855252,-54.80077 z"
         style="opacity:1;fill:#17a98c;fill-opacity:1;fill-rule:nonzero;stroke:none;stroke-width:4.91338587;stroke-miterlimit:4;stroke-dasharray:none;stroke-opacity:1" />
      <path
         inkscape:connector-curvature="0"
         id="path932"
         d="m 1931.8188,648.12854 c -44.3524,-12.97908 -131.4446,-37.21927 -158.9637,-44.24401 -86.882,-22.17827 -156.0908,-33.40049 -206.2497,-33.44342 -11.4798,-0.0101 -13.1991,-0.30556 -30.0325,-5.1657 -57.4132,-16.57639 -175.0619,-53.07628 -173.8967,-53.95048 0.199,-0.14928 8.9119,-3.23138 19.3621,-6.84911 26.6698,-9.23286 55.5453,-20.19244 101.743,-38.61627 98.0466,-39.10133 110.832,-43.82778 137.6309,-50.87897 18.5365,-4.87723 32.1271,-6.55534 52.3714,-6.46659 41.3305,0.18121 78.4067,8.33173 199.8087,43.92425 36.0698,10.5749 71.5113,20.86745 78.759,22.87234 l 13.1776,3.64526 v 89.17398 c 0,70.72104 -0.3171,89.15254 -1.5323,89.07034 -0.8428,-0.057 -15.3227,-4.13924 -32.1778,-9.07162 z"
         style="opacity:1;fill:#148e77;fill-opacity:1;fill-rule:nonzero;stroke:none;stroke-width:4.91300011;stroke-miterlimit:4;stroke-dasharray:none;stroke-opacity:1" />
      <path
         inkscape:connector-curvature="0"
         id="path2833"
         d="m 1906.8174,982.44175 c -126.9248,-35.37485 -219.5189,-64.23672 -324.1784,-101.0475 -52.6809,-18.52886 -140.6756,-51.64589 -142.7641,-53.72959 -0.4164,-0.41546 4.1293,-2.72964 10.1015,-5.14265 16.0239,-6.47422 50.3143,-22.14638 84.0947,-38.43478 89.0352,-42.93145 92.4566,-44.49696 111.3685,-50.95893 16.3163,-5.57509 26.9311,-7.64399 42.6798,-8.31861 36.9097,-1.58109 67.6997,6.52648 188.646,49.67394 l 50.2551,17.92845 v 97.85827 c 0,53.82205 -0.1137,97.81396 -0.2526,97.75981 -0.1389,-0.0541 -9.1166,-2.56892 -19.9505,-5.58841 z"
         style="opacity:1;fill:#1cd2ad;fill-opacity:1;fill-rule:nonzero;stroke:none;stroke-width:4.91338587;stroke-miterlimit:4;stroke-dasharray:none;stroke-opacity:1" />
      <path
         inkscape:connector-curvature="0"
         id="path934"
         d="m 1413.4805,542.05212 c -2.7779,-1.16244 -20.0515,-8.33984 -38.3858,-15.94977 -59.9518,-24.884 -87.9266,-37.2495 -170.7158,-75.46029 -59.4494,-27.43849 -108.8699,-49.76176 -126.269,-57.03581 -6.667,-2.78727 -12.4392,-5.35757 -12.8271,-5.71179 -0.3879,-0.35421 8.9307,-4.93359 20.7081,-10.17638 11.7774,-5.24279 40.5053,-18.36075 63.8398,-29.151 168.8799,-78.09282 219.3285,-99.29127 273.565,-114.95187 72.3339,-20.88615 131.4751,-21.51424 213.8336,-2.27096 50.7179,11.85037 98.5087,27.2151 236.6889,76.09551 l 46.6589,16.50528 0.2578,93.12956 c 0.206,74.39725 0,93.02322 -1.0101,92.60086 -0.6974,-0.29078 -6.2683,-2.65833 -12.3797,-5.2612 -19.2659,-8.20543 -67.7248,-27.20678 -93.4391,-36.63872 -83.2175,-30.52396 -125.4364,-37.57058 -170.0936,-28.3898 -23.3769,4.8059 -44.898,13.54852 -92.5461,37.59534 -36.3597,18.34989 -119.0079,60.95986 -125.9438,64.93141 -5.0036,2.86506 -5.4173,2.8699 -11.942,0.13963 z"
         style="opacity:1;fill:#384a52;fill-opacity:1;fill-rule:nonzero;stroke:none;stroke-width:4.91299963;stroke-miterlimit:4;stroke-dasharray:none;stroke-opacity:1" />
      <path
         inkscape:connector-curvature="0"
         id="path936"
         d="m 0.54663074,535.66788 c -0.14826716,-30.28298 0.009664,-55.05987 0.350957,-55.05976 0.34129346,1.2e-4 10.56908826,-4.82148 22.72843226,-10.71466 41.896793,-20.30579 69.316438,-31.68543 88.85757,-36.87746 9.61788,-2.55545 14.68597,-3.29461 25.17421,-3.67157 24.9312,-0.89605 32.74585,1.57933 115.88463,36.70789 10.4005,4.39451 18.92366,8.26919 18.94036,8.61039 0.0167,0.34121 -2.12883,1.43659 -4.76785,2.43418 -30.95777,11.70248 -162.66796,67.31785 -222.486097,93.94598 -20.834397,9.27448 -39.3504018,17.49769 -41.1466783,18.27381 l -3.26595748,1.41115 z"
         style="opacity:1;fill:#222d32;fill-opacity:1;fill-rule:nonzero;stroke:none;stroke-width:4.91299963;stroke-miterlimit:4;stroke-dasharray:none;stroke-opacity:1;filter:url(#filter1033)" />
      <path
         sodipodi:nodetypes="ccsssscccscssscscsccc"
         transform="translate(0,11.249983)"
         inkscape:connector-curvature="0"
         id="path930"
         d="M 0.79657309,662.57378 0.81101564,572.98021 51.051662,552.34515 C 296.06319,451.71296 335.96743,381.61712 445.75432,410.22518 622.05755,456.16594 758.66883,322.73305 995.78239,327.724 c 42.56691,0.89598 126.98081,44.97091 175.26151,74.04844 143.3037,86.30611 238.9606,-86.29014 348.5026,144.37906 116.5992,21.49418 -9.7422,17.13085 -64.3605,33.82462 -45.4252,14.11005 -114.2589,42.86312 -222.4252,92.91099 -12.7246,5.88763 -23.6885,10.7048 -24.3641,10.7048 -0.6756,0 -15.2659,-6.41564 -32.4226,-14.25699 C 1056.0396,614.52011 1013.561,597.59394 964.97274,585.25876 876.3779,562.76703 796.31272,565.6581 676.64575,595.66998 584.22877,618.84769 494.80509,649.42122 312.58941,720.13912 l -44.27148,17.18175 -29.46965,-12.39819 C 202.59328,709.66983 189.23962,704.55477 177.253,701.32884 139.69588,691.22124 117.26844,696.96431 27.551173,739.66352 20.884166,742.83655 12.13372,746.94797 8.1057364,748.8 l -7.32360597,3.36734 z"
         style="opacity:1;fill:#17a286;fill-opacity:1;fill-rule:nonzero;stroke:none;stroke-width:4.91299963;stroke-miterlimit:4;stroke-dasharray:none;stroke-opacity:1" />
      <path
         transform="translate(0,11.249983)"
         inkscape:connector-curvature="0"
         id="path2865"
         d="M 0.68111966,963.00763 V 846.03949 L 32.248387,833.04788 C 169.4966,776.5629 244.93535,746.40401 350.69898,705.73771 c 130.2077,-50.06509 200.50883,-74.61239 275.12186,-96.0653 148.88106,-42.80662 240.8068,-49.35848 339.05088,-24.16533 51.88008,13.30386 89.76098,28.62202 232.33508,93.9514 125.8043,57.6452 207.6285,91.58925 311.6321,129.27793 121.868,44.1624 271.7938,89.86659 384.363,117.17135 10.5561,2.56048 20.8975,5.10726 22.981,5.65952 l 3.7881,1.00409 v 73.70223 73.7022 H 960.32604 0.68111966 Z"
         style="opacity:1;fill:#1abc9c;fill-opacity:1;fill-rule:nonzero;stroke:none;stroke-width:4.91338587;stroke-miterlimit:4;stroke-dasharray:none;stroke-opacity:1" />
    </g>
    <text
       xml:space="preserve"
       style="font-style:normal;font-variant:normal;font-weight:normal;font-stretch:normal;font-size:40px;line-height:1.25;font-family:Comfortaa;-inkscape-font-specification:'Comfortaa, Normal';font-variant-ligatures:normal;font-variant-caps:normal;font-variant-numeric:normal;text-align:start;letter-spacing:0px;word-spacing:0px;writing-mode:lr-tb;text-anchor:start;opacity:1;fill:#000000;fill-opacity:1;stroke:none"
       x="350.01541"
       y="-1353.6121"
       id="text973"><tspan
         sodipodi:role="line"
         id="tspan971"
         x="350.01541"
         y="-1353.6121"><tspan
   style="fill:#1abc9c;fill-opacity:1"
   id="tspan981">1abc9c</tspan>  = teal</tspan><tspan
         sodipodi:role="line"
         x="350.01541"
         y="-1303.6121"
         id="tspan975">222d32 = dark (blue?) background</tspan><tspan
         sodipodi:role="line"
         x="350.01541"
         y="-1253.6121"
         id="tspan977">fafbfc = white</tspan><tspan
         sodipodi:role="line"
         x="350.01541"
         y="-1203.6121"
         id="tspan979">c1c1c1 = Luna grey</tspan></text>
    <rect
       style="opacity:1;fill:#222d32;fill-opacity:1;fill-rule:nonzero;stroke:none;stroke-width:2.24060154;stroke-miterlimit:4;stroke-dasharray:none;stroke-opacity:1"
       id="rect987"
       width="205.71428"
       height="65.714287"
       x="1014.301"
       y="-1349.3264" />
    <rect
       y="-1406.4692"
       x="627.15826"
       height="52.85714"
       width="205.71428"
       id="rect989"
       style="opacity:1;fill:#1abc9c;fill-opacity:1;fill-rule:nonzero;stroke:none;stroke-width:2.00949335;stroke-miterlimit:4;stroke-dasharray:none;stroke-opacity:1" />
    <rect
       style="opacity:1;fill:#fafbfc;fill-opacity:1;fill-rule:nonzero;stroke:none;stroke-width:1.92630553;stroke-miterlimit:4;stroke-dasharray:none;stroke-opacity:1"
       id="rect991"
       width="205.71428"
       height="48.571426"
       x="118.58675"
       y="-1290.755" />
    <rect
       y="-1239.3264"
       x="705.72961"
       height="54.285713"
       width="205.71428"
       id="rect993"
       style="opacity:1;fill:#c1c1c1;fill-opacity:1;fill-rule:nonzero;stroke:none;stroke-width:2.03646755;stroke-miterlimit:4;stroke-dasharray:none;stroke-opacity:1" />
    <path
       inkscape:connector-curvature="0"
       style="color:#000000;display:inline;overflow:visible;visibility:visible;opacity:1;fill:url(#linearGradient951);fill-opacity:1;fill-rule:evenodd;stroke:none;stroke-width:7.14059973;stroke-linecap:round;stroke-linejoin:miter;stroke-miterlimit:4;stroke-dasharray:none;stroke-dashoffset:0;stroke-opacity:1;marker:none;marker-start:none;marker-mid:none;marker-end:none;enable-background:accumulate"
       d="m 1556.7361,-1440.392 -5.4004,0.5176 v 22.2324 l 5.3418,-0.8027 v -9.4805 l 7.1817,10.5137 5.6308,-1.7813 -7.3535,-10.1113 7.4101,-9.5351 -5.7441,-1.3223 -7.125,9.5371 z m -217.793,1.0098 v 16.2363 16.2344 h 4.8399 4.8398 v -11.3965 -11.3945 h 5.6192 5.6191 v -4.8399 -4.8398 h -10.459 z m 22.7911,0 v 16.2363 16.2344 h 4.8398 4.8398 v -16.2344 -16.2363 h -4.8398 z m 100.9765,0 c -0.5874,0 -1.0892,0.2018 -1.5039,0.6074 -0.4147,0.4057 -0.6211,0.896 -0.6211,1.4707 0,0.5747 0.2064,1.0651 0.6211,1.4707 0.4147,0.4057 0.9165,0.6074 1.5039,0.6074 0.5875,0 1.0873,-0.2017 1.502,-0.6074 0.4146,-0.4056 0.623,-0.896 0.623,-1.4707 0,-0.5747 -0.2084,-1.065 -0.623,-1.4707 -0.4147,-0.4056 -0.9145,-0.6074 -1.502,-0.6074 z m 81.7852,4.4062 c -0.061,0.01 -0.1184,0.032 -0.1641,0.078 l -2.1211,2.1192 c -0.089,0.089 -0.1046,0.2278 -0.039,0.3359 l 2.4805,4.0859 c -0.4401,0.7398 -0.7928,1.5375 -1.0449,2.379 l -4.5547,0.9492 c -0.1267,0.026 -0.2187,0.1375 -0.2187,0.2675 v 2.9961 c 0,0.1267 0.087,0.2363 0.2089,0.2657 l 4.4219,1.082 c 0.2357,0.9745 0.6012,1.8989 1.084,2.748 l -2.5586,3.9024 c -0.071,0.109 -0.057,0.2518 0.035,0.3437 l 2.1191,2.1192 c 0.089,0.089 0.2272,0.1049 0.3359,0.039 l 4.0098,-2.4336 c 0.7877,0.4546 1.6373,0.8122 2.5352,1.0547 l 0.9355,4.4981 c 0.026,0.1275 0.1403,0.2168 0.2695,0.2168 h 2.9961 c 0.126,0 0.2356,-0.085 0.2657,-0.209 l 1.1015,-4.5078 c 0.9255,-0.2498 1.8025,-0.6225 2.6094,-1.0977 l 3.9512,2.5918 c 0.1086,0.072 0.2514,0.057 0.3437,-0.035 l 2.1192,-2.1192 c 0.09,-0.09 0.1066,-0.228 0.041,-0.3359 l -1.4434,-2.377 -0.4648,0.1465 c -0.068,0.021 -0.1436,0 -0.1836,-0.062 0,0 -0.919,-1.3467 -2.1074,-3.0859 -1.4206,2.7804 -4.3109,4.6855 -7.6485,4.6855 -4.742,0 -8.5879,-3.8457 -8.5879,-8.5879 0,-3.4885 2.0813,-6.488 5.0684,-7.832 v -2.2168 c -0.5436,0.1902 -1.0693,0.4194 -1.5684,0.6914 l -4.0449,-2.6523 c -0.055,-0.036 -0.1168,-0.049 -0.1777,-0.043 z m -156.7891,1.0352 c -0.4953,0 -0.9222,0.1741 -1.2793,0.5234 -0.3455,0.3381 -0.5176,0.7499 -0.5176,1.2344 v 15.3984 c 0,0.4958 0.1721,0.9183 0.5176,1.2676 0.3571,0.338 0.7901,0.5058 1.2969,0.5058 0.4953,0 0.9161,-0.1678 1.2617,-0.5058 0.3571,-0.3493 0.5352,-0.7718 0.5352,-1.2676 v -9.6171 c 0,-0.5522 0.1032,-1.0702 0.3105,-1.5547 0.2189,-0.4846 0.5123,-0.907 0.8809,-1.2676 0.3801,-0.3719 0.8191,-0.6605 1.3144,-0.8633 0.4953,-0.2141 1.0255,-0.3203 1.5899,-0.3203 0.5644,0 1.0926,0.1062 1.5879,0.3203 0.4953,0.2141 0.9282,0.5027 1.2968,0.8633 0.3686,0.3606 0.662,0.783 0.8809,1.2676 0.2188,0.4845 0.3281,1.0025 0.3281,1.5547 v 9.6171 c 0,0.4958 0.172,0.9183 0.5176,1.2676 0.3571,0.338 0.79,0.5058 1.2969,0.5058 0.4953,0 0.9161,-0.1678 1.2617,-0.5058 0.3571,-0.3493 0.5351,-0.7718 0.5351,-1.2676 v -9.6171 c 0,-0.5522 0.1033,-1.0702 0.3106,-1.5547 0.2188,-0.4846 0.5123,-0.907 0.8808,-1.2676 0.3802,-0.3606 0.8192,-0.6492 1.3145,-0.8633 0.4953,-0.2141 1.0254,-0.3203 1.5898,-0.3203 0.576,0 1.1102,0.1062 1.6055,0.3203 0.5068,0.2141 0.9459,0.5071 1.3145,0.8789 0.3686,0.3606 0.6559,0.7831 0.8632,1.2676 0.2189,0.4845 0.3282,0.9982 0.3282,1.5391 v 9.6171 c 0,0.4958 0.172,0.9183 0.5175,1.2676 0.3456,0.338 0.7725,0.5058 1.2793,0.5058 0.4953,0 0.9162,-0.1678 1.2618,-0.5058 0.357,-0.3493 0.5351,-0.7718 0.5351,-1.2676 v -9.6171 c 0,-1.0254 -0.2064,-1.9955 -0.6211,-2.9082 -0.4031,-0.924 -0.9575,-1.7244 -1.6601,-2.4004 -0.6911,-0.6874 -1.5086,-1.2268 -2.4532,-1.6211 -0.933,-0.4057 -1.9225,-0.6094 -2.9707,-0.6094 -2.3267,0 -4.2914,0.8959 -5.8925,2.6875 -0.7603,-0.9014 -1.6466,-1.5723 -2.6602,-2.0117 -1.0136,-0.4507 -2.0962,-0.6758 -3.248,-0.6758 -1.5666,0 -2.9668,0.4011 -4.1993,1.2012 -0.1151,-0.3606 -0.3276,-0.6492 -0.6386,-0.8633 -0.311,-0.2254 -0.6691,-0.3379 -1.0723,-0.3379 z m 38.1836,0 c -2.6723,0 -4.9527,0.9235 -6.8418,2.7715 -1.889,1.8479 -2.834,4.0792 -2.834,6.6933 0,2.6142 0.945,4.8454 2.834,6.6933 1.8891,1.848 4.1695,2.7715 6.8418,2.7715 1.1519,0 2.2344,-0.1785 3.248,-0.539 1.0137,-0.3606 1.9526,-0.8806 2.8165,-1.5567 v 0.3379 c 0,0.4845 0.1739,0.9027 0.5195,1.252 0.3571,0.338 0.7881,0.5058 1.2949,0.5058 0.4953,0 0.9162,-0.1678 1.2617,-0.5058 0.3571,-0.3493 0.5352,-0.7675 0.5352,-1.252 v -7.707 c 0,-2.6141 -0.943,-4.8454 -2.832,-6.6933 -1.9121,-1.848 -4.1945,-2.7715 -6.8438,-2.7715 z m 14.2383,0 c -0.5068,0 -0.9398,0.1741 -1.2969,0.5234 -0.3456,0.3493 -0.5176,0.7675 -0.5176,1.252 v 15.3808 c 0,0.4958 0.172,0.9183 0.5176,1.2676 0.3571,0.338 0.7901,0.5058 1.2969,0.5058 0.4953,0 0.9142,-0.1678 1.2597,-0.5058 0.3571,-0.3493 0.5372,-0.7718 0.5372,-1.2676 v -8.3339 c 0,-0.7212 0.1376,-1.4027 0.414,-2.045 0.288,-0.6422 0.6805,-1.2049 1.1758,-1.6894 0.4953,-0.4845 1.0639,-0.8624 1.709,-1.1328 0.6565,-0.2817 1.3607,-0.4219 2.1094,-0.4219 0.7372,0 1.4332,0.1402 2.0898,0.4219 0.6566,0.2817 1.2272,0.6658 1.7109,1.1504 0.4953,0.4732 0.8859,1.0296 1.1739,1.6718 0.2879,0.6423 0.4336,1.3238 0.4336,2.045 v 8.3339 c 0,0.4958 0.172,0.9183 0.5175,1.2676 0.3571,0.338 0.7881,0.5058 1.295,0.5058 0.4953,0 0.9161,-0.1678 1.2617,-0.5058 0.3571,-0.3493 0.5351,-0.7718 0.5351,-1.2676 v -8.3339 c 0,-1.217 -0.2408,-2.3593 -0.7246,-3.4297 -0.4838,-1.0818 -1.1413,-2.0179 -1.9707,-2.8067 -0.8293,-0.8 -1.7905,-1.4306 -2.8847,-1.8925 -1.0828,-0.462 -2.2281,-0.6934 -3.4375,-0.6934 -2.0734,0 -3.8763,0.5796 -5.4082,1.7402 0,-0.462 -0.1801,-0.8675 -0.5372,-1.2168 -0.3455,-0.3493 -0.7644,-0.5234 -1.2597,-0.5234 z m 22.582,0 c -0.4953,0 -0.9222,0.1741 -1.2793,0.5234 -0.3455,0.3381 -0.5176,0.7562 -0.5176,1.252 v 17.0703 c 0,0.6422 -0.1274,1.2451 -0.3808,1.8085 -0.2534,0.5634 -0.5994,1.0538 -1.0371,1.4707 -0.4262,0.4282 -0.9261,0.7615 -1.502,0.9981 -0.5759,0.2479 -1.193,0.3711 -1.8496,0.3711 -0.5183,0 -0.9494,0.1634 -1.2949,0.4902 -0.3341,0.3381 -0.502,0.7605 -0.502,1.2676 0,0.5071 0.1679,0.9295 0.502,1.2676 0.3455,0.338 0.7766,0.5078 1.2949,0.5078 1.1403,0 2.2168,-0.2207 3.2305,-0.6602 1.0136,-0.4281 1.9019,-1.0141 2.6621,-1.7578 0.7602,-0.7437 1.3592,-1.6119 1.7969,-2.6035 0.4492,-0.9916 0.6738,-2.0446 0.6738,-3.1601 v -17.0703 c 0,-0.4958 -0.1781,-0.9139 -0.5352,-1.252 -0.3455,-0.3493 -0.7664,-0.5234 -1.2617,-0.5234 z m 14.1152,0 c -2.6723,0 -4.9527,0.9235 -6.8417,2.7715 -1.8891,1.8479 -2.834,4.0792 -2.834,6.6933 0,2.6142 0.9449,4.8454 2.834,6.6933 1.889,1.848 4.1694,2.7715 6.8417,2.7715 1.1519,0 2.2345,-0.1785 3.2481,-0.539 1.0136,-0.3606 1.9525,-0.8806 2.8164,-1.5567 v 0.3379 c 0,0.4845 0.174,0.9027 0.5195,1.252 0.3571,0.338 0.7881,0.5058 1.295,0.5058 0.4953,0 0.9161,-0.1678 1.2617,-0.5058 0.357,-0.3493 0.5351,-0.7675 0.5351,-1.252 v -7.707 c 0,-2.6141 -0.9449,-4.8454 -2.834,-6.6933 -1.912,-1.848 -4.1925,-2.7715 -6.8418,-2.7715 z m 14.1856,0 c -0.5068,0 -0.9379,0.1741 -1.2949,0.5234 -0.3456,0.3381 -0.5196,0.7499 -0.5196,1.2344 v 15.414 c 0,0.4845 0.174,0.9027 0.5196,1.252 0.357,0.338 0.7881,0.5058 1.2949,0.5058 0.4953,0 0.9162,-0.1678 1.2617,-0.5058 0.3571,-0.3493 0.5352,-0.7675 0.5352,-1.252 v -7.707 c 0,-0.8225 0.1558,-1.5933 0.4668,-2.3144 0.3225,-0.7212 0.7535,-1.3474 1.2949,-1.877 0.5529,-0.5408 1.1983,-0.9633 1.9355,-1.2675 0.7372,-0.3156 1.5264,-0.4727 2.3672,-0.4727 0.8524,0 1.6415,0.1402 2.3672,0.4219 0.288,0.1239 0.5409,0.1855 0.7598,0.1855 0.2534,0 0.4901,-0.045 0.709,-0.1347 0.2188,-0.09 0.409,-0.2134 0.5703,-0.3711 0.1612,-0.1691 0.2887,-0.3621 0.3808,-0.5762 0.1037,-0.2141 0.1543,-0.4435 0.1543,-0.6914 0,-0.4845 -0.1618,-0.8794 -0.4843,-1.1836 -0.3226,-0.3043 -0.7313,-0.5419 -1.2266,-0.711 -0.4838,-0.1802 -1.018,-0.3034 -1.6055,-0.371 -0.5759,-0.068 -1.1182,-0.1016 -1.625,-0.1016 -1.1518,0 -2.2344,0.1804 -3.248,0.541 -1.0137,0.3606 -1.9525,0.8786 -2.8164,1.5547 v -0.3379 c 0,-0.4845 -0.1781,-0.8963 -0.5352,-1.2344 -0.3455,-0.3493 -0.7664,-0.5234 -1.2617,-0.5234 z m 24.5176,0 c -2.6723,0 -4.9528,0.9235 -6.8418,2.7715 -1.8891,1.8479 -2.834,4.0792 -2.834,6.6933 0,2.6142 0.9449,4.8454 2.834,6.6933 1.889,1.848 4.1695,2.7715 6.8418,2.7715 2.6493,0 4.9297,-0.9235 6.8418,-2.7715 1.889,-1.8254 2.834,-4.0566 2.834,-6.6933 -0.012,-1.3071 -0.2543,-2.5172 -0.7266,-3.6328 -0.4608,-1.1155 -1.1629,-2.1365 -2.1074,-3.0605 -1.9121,-1.848 -4.1925,-2.7715 -6.8418,-2.7715 z m -89.6387,3.5332 c 0.8409,0 1.63,0.1571 2.3672,0.4727 0.7372,0.3155 1.3766,0.7442 1.918,1.2851 0.5528,0.5409 0.9858,1.1714 1.2968,1.8926 0.3226,0.7099 0.4825,1.4699 0.4825,2.2812 0,0.8113 -0.1599,1.5777 -0.4825,2.2988 -0.311,0.7099 -0.744,1.3361 -1.2968,1.877 -0.5414,0.5408 -1.1808,0.9677 -1.918,1.2832 -0.7372,0.3155 -1.5263,0.4746 -2.3672,0.4746 -0.8524,0 -1.6456,-0.1591 -2.3828,-0.4746 -0.7372,-0.3155 -1.3766,-0.738 -1.918,-1.2676 -0.5414,-0.5409 -0.9743,-1.1714 -1.2969,-1.8926 -0.311,-0.7211 -0.4668,-1.4875 -0.4668,-2.2988 0,-0.8113 0.1558,-1.5776 0.4668,-2.2988 0.3226,-0.7211 0.7555,-1.3454 1.2969,-1.875 0.5414,-0.5409 1.1808,-0.9696 1.918,-1.2851 0.7372,-0.3156 1.5304,-0.4727 2.3828,-0.4727 z m 50.9355,0 c 0.8409,0 1.63,0.1571 2.3672,0.4727 0.7372,0.3155 1.3766,0.7442 1.918,1.2851 0.5529,0.5409 0.9859,1.1714 1.2969,1.8926 0.3225,0.7099 0.4824,1.4699 0.4824,2.2812 0,0.8113 -0.1599,1.5777 -0.4824,2.2988 -0.311,0.7099 -0.744,1.3361 -1.2969,1.877 -0.5414,0.5408 -1.1808,0.9677 -1.918,1.2832 -0.7372,0.3155 -1.5263,0.4746 -2.3672,0.4746 -0.8523,0 -1.6475,-0.1591 -2.3847,-0.4746 -0.7372,-0.3155 -1.3747,-0.738 -1.916,-1.2676 -0.5414,-0.5409 -0.9744,-1.1714 -1.2969,-1.8926 -0.311,-0.7211 -0.4668,-1.4875 -0.4668,-2.2988 0,-0.8113 0.1558,-1.5776 0.4668,-2.2988 0.3225,-0.7211 0.7555,-1.3454 1.2969,-1.875 0.5413,-0.5409 1.1788,-0.9696 1.916,-1.2851 0.7372,-0.3156 1.5324,-0.4727 2.3847,-0.4727 z m 38.7032,0 c 0.8408,0 1.63,0.1571 2.3672,0.4727 0.7372,0.3155 1.3766,0.7442 1.9179,1.2851 0.5529,0.5409 0.9839,1.1714 1.295,1.8926 0.3225,0.7099 0.4843,1.4699 0.4843,2.2812 0,0.8113 -0.1618,1.5777 -0.4843,2.2988 -0.3111,0.7099 -0.7421,1.3361 -1.295,1.877 -0.5413,0.5408 -1.1807,0.9677 -1.9179,1.2832 -0.7372,0.3155 -1.5264,0.4746 -2.3672,0.4746 -0.8524,0 -1.6476,-0.1591 -2.3848,-0.4746 -0.7372,-0.3155 -1.3766,-0.738 -1.918,-1.2676 -0.5413,-0.5409 -0.9724,-1.1714 -1.2949,-1.8926 -0.311,-0.7211 -0.4668,-1.4875 -0.4668,-2.2988 0,-0.8113 0.1558,-1.5776 0.4668,-2.2988 0.3225,-0.7211 0.7536,-1.3454 1.2949,-1.875 0.5414,-0.5409 1.1808,-0.9696 1.918,-1.2851 0.7372,-0.3156 1.5324,-0.4727 2.3848,-0.4727 z m -165.0332,2.5762 v 10.4589 10.459 h 4.6836 4.6816 v -10.459 -10.4589 h -4.6816 z"
       id="path1501" />
    <g
       id="g1158"
       transform="translate(-1.4285715,-1080)">
      <rect
         inkscape:export-ydpi="96"
         inkscape:export-xdpi="96"
         y="11.250004"
         x="1.4285715"
         height="2160"
         width="3840"
         id="rect2829"
         style="opacity:1;fill:#222d32;fill-opacity:1;fill-rule:nonzero;stroke:none;stroke-width:4.91338587;stroke-miterlimit:4;stroke-dasharray:none;stroke-opacity:1" />
      <path
         inkscape:original-d="M 1.4288882,1553.3613 C 319.27333,1379.5625 321.8673,1410.7026 574.94646,1529.5723"
         inkscape:path-effect="#path-effect2805"
         inkscape:connector-curvature="0"
         id="path2803"
         d="m 1.4288882,1553.3613 c 0.05596,0.1023 40.1927398,-23.9087 105.0512018,-56.7296 0,0 2e-5,0 2e-5,0 23.57214,-11.9288 52.37946,-25.9843 82.59466,-38.1876 20.51032,-8.285 42.94933,-16.2546 66.47472,-21.613 9.54851,-2.1749 19.35969,-3.9057 29.34251,-5.0245 9.26571,-1.0385 18.47469,-1.5268 27.59947,-1.4081 18.69881,0.2475 36.86611,3.0739 53.89339,7.3999 20.41443,5.1871 39.85785,12.5242 57.3288,19.8167 24.25142,10.1209 48.6948,21.859 67.37227,30.8681 0,0 2e-5,0 2e-5,0 51.88467,25.0259 83.91766,40.9674 83.86052,41.0891 -0.15765,0.3357 -32.59161,-14.7921 -84.67576,-39.3807 0,0 -1e-5,0 -1e-5,0 -18.67281,-8.815 -43.31583,-20.4567 -67.45747,-30.4053 -17.44586,-7.188 -36.81232,-14.4248 -57.05385,-19.5131 -16.87514,-4.2426 -34.84679,-7.0129 -53.30154,-7.2394 -9.00776,-0.1127 -18.10669,0.3737 -27.27102,1.4019 -9.87334,1.1078 -19.58849,2.818 -29.05369,4.9638 -23.32953,5.2889 -45.6611,13.1774 -66.12315,21.3701 -30.11519,12.0597 -58.99251,25.9818 -82.59381,37.7273 -10e-6,0 -10e-6,0 -2e-5,0 -64.997281,32.348 -105.7839317,55.2363 -105.9872618,54.8644 z"
         style="fill:url(#linearGradient918);fill-opacity:1;stroke:none;stroke-width:0.26458329px;stroke-linecap:butt;stroke-linejoin:miter;stroke-opacity:1" />
      <path
         inkscape:original-d="M 6.5648693,1765.4446 C 2388.3219,757.72993 1454.1038,1329.8563 3803.7647,1937.254"
         inkscape:path-effect="#path-effect2809"
         inkscape:connector-curvature="0"
         id="path2807"
         d="m 6.5648693,1765.4446 c -0.03925,-0.093 73.1774107,-31.6252 203.3910407,-86.3269 118.73802,-49.8809 328.83435,-137.5457 546.84072,-221.5184 0,0 1.1e-4,0 1.1e-4,0 87.19925,-33.5878 183.4089,-69.5423 282.89596,-103.6715 74.3402,-25.5027 153.169,-50.9437 234.2336,-73.389 62.8265,-17.3958 128.255,-33.3566 195.2426,-45.3881 53.9591,-9.6917 109.5265,-16.8995 165.9212,-19.6496 48.2072,-2.3506 97.2073,-1.3709 146.2486,3.8373 45.572,4.8408 91.0846,13.3413 136.1948,25.0634 5e-4,10e-5 1.4304,0.3727 1.4308,0.3729 45.9268,12.0044 90.7448,27.0739 134.3306,43.6322 49.4106,18.7708 97.8422,39.6136 144.9819,60.6619 55.0563,24.5828 110.8896,50.5924 163.8816,75.0528 65.8506,30.3956 129.0944,59.2733 192.4661,87.1938 183.0788,80.6617 353.9131,147.0237 509.405,201.8513 124.1095,43.762 238.6289,80.4599 336.2804,110.2173 251.3882,76.6057 403.531,113.5754 403.4548,113.87 0.2342,-0.9062 -152.2846,-36.1086 -403.9247,-112.3233 -97.729,-29.5993 -212.3043,-66.1478 -336.5028,-109.7975 -155.5897,-54.6822 -326.5392,-120.9436 -509.7145,-201.5426 -63.4013,-27.8973 -126.6789,-56.7596 -192.5411,-87.135 -52.9987,-24.4428 -108.843,-50.4399 -163.8715,-74.9972 -47.1217,-21.0285 -95.5113,-41.8456 -144.8524,-60.5841 -43.5231,-16.5286 -88.2522,-31.5673 -134.0624,-43.5398 4e-4,10e-5 -1.4276,-0.3721 -1.4272,-0.3719 -44.9925,-11.6909 -90.3758,-20.1702 -135.8083,-24.9994 -48.8915,-5.1979 -97.7563,-6.1808 -145.8425,-3.846 -56.2561,2.7311 -111.7151,9.9125 -165.593,19.5713 -66.8879,11.9915 -132.2478,27.9104 -195.0307,45.2625 -81.0067,22.3893 -159.8068,47.7732 -234.1335,73.2161 -99.462,34.0472 -195.69172,69.92 -282.90132,103.4134 0,0 -1.2e-4,10e-5 -1.2e-4,10e-5 -217.40811,83.4972 -428.91297,171.3409 -547.13696,220.6499 -130.34793,54.3657 -203.7721936,85.4141 -203.8568307,85.2141 z"
         style="fill:url(#linearGradient920);fill-opacity:1;stroke:none;stroke-width:0.26458329px;stroke-linecap:butt;stroke-linejoin:miter;stroke-opacity:1" />
      <path
         inkscape:original-d="m 2807.3849,1618.085 c 539.9848,-245.281 397.0143,-295.3839 1013.4996,-60.1332"
         inkscape:path-effect="#path-effect2813"
         inkscape:connector-curvature="0"
         id="path2811"
         d="m 2807.3849,1618.085 c -0.1673,-0.3684 67.8531,-31.0089 172.8479,-83.5592 0,0 0,0 0,0 37.5926,-18.8152 79.8173,-40.6637 126.0852,-63.4921 29.5594,-14.5859 62.2867,-30.3714 96.0379,-43.0101 13.583,-5.086 27.6249,-9.7324 42.0479,-13.5157 13.2883,-3.4854 26.9517,-6.2357 40.8771,-8.0006 6.0687,-0.7689 12.1846,-1.3496 18.3376,-1.7431 7.8459,-0.5017 15.672,-0.6938 23.4513,-0.5965 15.1454,0.1898 30.1262,1.46 44.7761,3.4546 37.3468,5.087 73.6146,14.7578 106.8946,24.7891 51.5338,15.53 102.8689,34.2698 144.1067,49.5365 0,0 10e-5,0 10e-5,0 120.9512,44.7762 197.968,76.1851 198.0372,76.0039 -0.1523,0.3992 -77.6792,-29.7255 -198.7621,-74.0344 0,0 -1e-4,0 -1e-4,0 -41.2333,-15.0886 -92.6875,-33.7141 -144.1012,-49.1116 -33.2393,-9.9526 -69.3973,-19.5542 -106.5284,-24.5822 -14.562,-1.9727 -29.4364,-3.2286 -44.4556,-3.4127 -7.7138,-0.095 -15.4727,0.097 -23.2498,0.5937 -6.099,0.3899 -12.1604,0.965 -18.1742,1.7261 -13.7998,1.746 -27.3519,4.4695 -40.5428,7.9212 -14.3191,3.7468 -28.2808,8.3561 -41.8048,13.4045 -33.6097,12.5453 -66.3003,28.2554 -95.8694,42.7682 -46.285,22.7192 -88.5783,44.442 -126.2632,63.109 0,0 0,0 0,0 -105.2663,52.1432 -173.6428,81.983 -173.748,81.7514 z"
         style="fill:url(#linearGradient922);fill-opacity:1;stroke:none;stroke-width:0.26458329px;stroke-linecap:butt;stroke-linejoin:miter;stroke-opacity:1" />
      <path
         inkscape:original-d="M 2102.348,1314.1147 C 2994.9883,891.95771 2937.1102,849.92377 3838.2858,1194.5089"
         inkscape:path-effect="#path-effect2817"
         inkscape:connector-curvature="0"
         id="path2815"
         d="m 2102.348,1314.1147 c 0.07,0.1476 113.7789,-55.3097 293.4794,-141.3883 0,0 10e-5,0 10e-5,0 63.7479,-30.5362 146.2372,-70.006 227.1295,-104.9809 56.432,-24.4002 118.4458,-49.4957 182.9321,-69.09946 26.5691,-8.07657 53.9203,-15.29285 81.8842,-21.08679 21.3771,-4.42911 43.1533,-8.02614 65.2303,-10.60245 4.6649,-0.54437 9.3269,-1.04127 13.9857,-1.48997 26.6491,-2.56635 53.1557,-3.54715 79.3253,-3.08198 27.8594,0.49543 55.3445,2.61906 82.2083,5.93899 30.0141,3.70932 59.409,8.91434 87.8711,14.96565 33.1376,7.04528 65.4219,15.31466 96.3238,23.99951 82.9297,23.3073 164.0205,51.695 229.1902,75.1713 0,0 0,0 0,0 182.6533,65.797 296.0859,112.8119 296.3778,112.0486 -0.1422,0.3718 -114.297,-44.8525 -297.0518,-110.1701 0,0 -10e-5,0 -10e-5,0 -65.1739,-23.2932 -146.3515,-51.5436 -229.1725,-74.7086 -30.8746,-8.6356 -63.1175,-16.85884 -96.1935,-23.86088 -28.4092,-6.01401 -57.7356,-11.18604 -87.6629,-14.8672 -26.7854,-3.29472 -54.1803,-5.40019 -81.9368,-5.88525 -26.0724,-0.45585 -52.4788,0.52558 -79.0252,3.08331 -4.6409,0.4471 -9.2853,0.94218 -13.9327,1.4845 -21.9944,2.56662 -43.6944,6.14904 -65.0018,10.55889 -27.8735,5.7687 -55.1507,12.95612 -81.6607,21.00053 -64.344,19.5241 -126.3008,44.5398 -182.7186,68.8535 -80.7631,34.8068 -163.5211,74.222 -227.2323,104.5496 0,0 0,0 0,0 -179.9046,85.6381 -294.1761,139.9329 -294.3489,139.5675 z"
         style="fill:url(#linearGradient924);fill-opacity:1;stroke:none;stroke-width:0.26458329px;stroke-linecap:butt;stroke-linejoin:miter;stroke-opacity:1" />
      <path
         style="opacity:1;fill:url(#linearGradient1118);fill-opacity:1;stroke-width:0.31220376"
         d="m 3333.0414,1654.7247 v -31.8194 h 20.4987 20.4996 v 9.4847 9.4846 h -11.0146 -11.0144 v 22.335 22.3347 h -9.4848 -9.4845 z m 22.6408,11.3204 v -20.4988 h 9.1788 9.1787 v 20.4988 20.4992 h -9.1787 -9.1788 z m 22.029,-11.3204 v -31.8194 h 9.4848 9.4845 v 31.8194 31.8196 h -9.4845 -9.4848 z"
         id="path935"
         inkscape:connector-curvature="0"
         inkscape:export-filename="/home/mint/Bilder/manjaro.png"
         inkscape:export-xdpi="96"
         inkscape:export-ydpi="96" />
      <text
         xml:space="preserve"
         style="font-style:normal;font-variant:normal;font-weight:bold;font-stretch:normal;font-size:68.59628296px;line-height:1.25;font-family:Comfortaa;-inkscape-font-specification:'Comfortaa, Bold';font-variant-ligatures:normal;font-variant-caps:normal;font-variant-numeric:normal;font-feature-settings:normal;text-align:start;letter-spacing:0px;word-spacing:0px;writing-mode:lr-tb;text-anchor:start;fill:url(#linearGradient1126);fill-opacity:1;stroke:none;stroke-width:0.87495303"
         x="3388.9075"
         y="1689.1514"
         id="text939"
         transform="scale(1.0110587,0.98906226)"><tspan
           sodipodi:role="line"
           id="tspan937"
           x="3388.9075"
           y="1689.1514"
           style="fill:url(#linearGradient1126);fill-opacity:1;stroke-width:0.87495303">manjaro</tspan></text>
    </g>
  </g>
</svg>
